<svg width="512" height="512" viewBox="0 0 512 512" fill="none" xmlns="http://www.w3.org/2000/svg">
<path d="M149.5 408.2C149.224 408.2 149 407.976 149 407.7V101.5C149 101.224 149.224 101 149.5 101H261.249C285.93 101 306.534 104.95 323.063 112.85C339.705 120.65 352.215 131.5 360.593 145.4C369.084 159.2 373.329 175.05 373.329 192.95C373.329 210.85 369.084 226.65 360.593 240.35C352.215 254.05 339.762 264.75 323.233 272.45C306.704 280.15 286.213 284 261.759 284H166.652C166.375 284 166.152 283.776 166.152 283.5V258.85C166.152 258.574 166.375 258.35 166.652 258.35H260.91C279.024 258.35 294.081 255.7 306.081 250.4C318.195 245.1 327.195 237.55 333.082 227.75C339.082 217.95 342.083 206.35 342.083 192.95C342.083 179.55 339.082 167.85 333.082 157.85C327.082 147.75 318.025 139.95 305.911 134.45C293.911 128.95 278.741 126.2 260.4 126.2H181.256C180.98 126.2 180.756 126.424 180.756 126.7V407.7C180.756 407.976 180.532 408.2 180.256 408.2H149.5ZM305.77 258.373C305.96 258.359 306.142 258.455 306.238 258.62L416.743 448.559C416.884 448.801 416.798 449.112 416.553 449.247L389.427 464.263C389.19 464.395 388.891 464.313 388.753 464.078L270.405 261.692C270.218 261.373 270.431 260.968 270.8 260.941L305.77 258.373Z" fill="black"/>
<circle cx="256" cy="256" r="238" stroke="black" stroke-width="36"/>
</svg>
