<svg width="15" height="15" viewBox="0 0 15 15" fill="none" xmlns="http://www.w3.org/2000/svg">
<circle cx="7.5" cy="7" r="7" fill="black"/>
<path d="M4.46517 11.9375C4.20827 11.9375 4 11.7292 4 11.4723V3.4375C4 3.16136 4.22386 2.9375 4.5 2.9375H7.28856C8.01161 2.9375 8.61526 3.05322 9.0995 3.28467C9.58706 3.51318 9.95357 3.83105 10.199 4.23828C10.4478 4.64258 10.5721 5.10693 10.5721 5.63135C10.5721 6.15576 10.4478 6.61865 10.199 7.02002C9.95357 7.42139 9.58872 7.73486 9.10448 7.96045C8.62023 8.18604 8.0199 8.29883 7.30348 8.29883H4.87822C4.67071 8.29883 4.50249 8.13061 4.50249 7.9231V7.9231C4.50249 7.71558 4.67071 7.54736 4.87822 7.54736H7.27861C7.80929 7.54736 8.25041 7.46973 8.60199 7.31445C8.95688 7.15918 9.22056 6.93799 9.39303 6.65088C9.56882 6.36377 9.65672 6.02393 9.65672 5.63135C9.65672 5.23877 9.56882 4.896 9.39303 4.60303C9.21725 4.30713 8.95191 4.07861 8.59702 3.91748C8.24544 3.75635 7.801 3.67578 7.26368 3.67578H5.43035C5.15421 3.67578 4.93035 3.89964 4.93035 4.17578V11.4723C4.93035 11.7292 4.72208 11.9375 4.46517 11.9375V11.9375ZM8.38692 7.83684C8.45547 7.86287 8.51369 7.91049 8.55281 7.97251L11.5652 12.7482C11.754 13.0475 11.5389 13.4375 11.185 13.4375V13.4375C11.0243 13.4375 10.8759 13.3518 10.7956 13.2126L7.97409 8.32178C7.81524 8.04644 8.08975 7.72398 8.38692 7.83684V7.83684Z" fill="white"/>
<path d="M7.5 14C3.91015 14 1 11.0899 1 7.5H0C0 11.6421 3.35786 15 7.5 15V14ZM14 7.5C14 11.0899 11.0899 14 7.5 14V15C11.6421 15 15 11.6421 15 7.5H14ZM7.5 1C11.0899 1 14 3.91015 14 7.5H15C15 3.35786 11.6421 0 7.5 0V1ZM7.5 0C3.35786 0 0 3.35786 0 7.5H1C1 3.91015 3.91015 1 7.5 1V0Z" fill="black"/>
</svg>
